<svg xmlns="http://www.w3.org/2000/svg" width="1200" height="560" viewBox="0 0 1200 560" role="img" aria-label="Scan-debug request/latch 0x0000 timing with measured currents">
<style>text{font-family:Arial,Helvetica,sans-serif;font-size:14px;fill:#1f2937}.title{font-size:22px;font-weight:700}.small{font-size:12px;fill:#4b5563}.muted{fill:#6b7280}.axis{stroke:#6b7280;stroke-width:1}.edge{stroke:#111827;stroke-dasharray:5 5;stroke-width:1}.lane{stroke:#e5e7eb;stroke-width:1}.tm{fill:none;stroke:#2563eb;stroke-width:2}.cur{fill:none;stroke:#ea580c;stroke-width:2}.phase{opacity:.55}</style>
<text x="24" y="34" class="title">Scan-debug request/latch 0x0000 timing with measured currents</text>
<text x="24" y="58" class="small">Firmware scan_debug_req0000_hold.hex. Scan word 0x0000. DAC rails: Vcc_set=1.7V, Vcc_wl_set=2.5V; read/reset rails 0V.</text>
<rect class="phase" x="405.0" y="82" width="122.5" height="390" fill="#d9ead3"/>
<text x="466.2" y="100" text-anchor="middle">pre</text>
<text x="466.2" y="118" text-anchor="middle" class="small">10.001-15.701s</text>
<rect class="phase" x="540.4" y="82" width="91.7" height="390" fill="#fce5cd"/>
<text x="586.2" y="100" text-anchor="middle">TM low / reset boot</text>
<text x="586.2" y="118" text-anchor="middle" class="small">16.301-20.566s</text>
<rect class="phase" x="651.4" y="82" width="488.6" height="390" fill="#d9eaf7"/>
<text x="895.7" y="100" text-anchor="middle">post scan-debug hold</text>
<text x="895.7" y="118" text-anchor="middle" class="small">21.466-44.200s</text>
<line class="edge" x1="533.9" y1="72" x2="533.9" y2="482"/>
<text x="538.9" y="78" class="small">TM low 16.001s</text>
<line class="edge" x1="638.5" y1="72" x2="638.5" y2="482"/>
<text x="643.5" y="78" class="small">TM high 20.866s</text>
<text x="24" y="137" font-weight="700">TM</text><text x="24" y="156" class="small">D6 measured</text>
<line class="lane" x1="190" y1="163" x2="1140" y2="163"/>
<polyline class="tm" points="190.0,127 533.9,127 533.9,163 638.5,163 638.5,127 1140.0,127"/>
<text x="1140" y="132" text-anchor="end" class="muted">high-low-high</text>
<text x="24" y="212" font-weight="700">Saleae A10-A9</text><text x="24" y="232" class="small">shifted to A2-A3 shunt</text>
<line class="lane" x1="190" y1="228" x2="1140" y2="228"/>
<polyline class="cur" points="405.0,219.8 527.5,219.8 540.4,240.2 632.0,240.2 651.4,233.6 1140.0,233.6"/>
<text x="466.2" y="212.8" text-anchor="middle">645.63 uA</text>
<text x="586.2" y="233.2" text-anchor="middle">643.55 uA</text>
<text x="895.7" y="226.6" text-anchor="middle">644.22 uA</text>
<text x="24" y="284" font-weight="700">ADC A0-A1</text><text x="24" y="304" class="small">set pair</text>
<line class="lane" x1="190" y1="300" x2="1140" y2="300"/>
<polyline class="cur" points="405.0,300.6 527.5,300.6 540.4,298.1 632.0,298.1 651.4,305.9 1140.0,305.9"/>
<text x="466.2" y="293.6" text-anchor="middle">-26.99 uA</text>
<text x="586.2" y="291.1" text-anchor="middle">-26.85 uA</text>
<text x="895.7" y="298.9" text-anchor="middle">-27.29 uA</text>
<text x="24" y="356" font-weight="700">ADC A2-A3</text><text x="24" y="376" class="small">read pair</text>
<line class="lane" x1="190" y1="372" x2="1140" y2="372"/>
<polyline class="cur" points="405.0,364.0 527.5,364.0 540.4,366.0 632.0,366.0 651.4,384.0 1140.0,384.0"/>
<text x="466.2" y="357.0" text-anchor="middle">605.18 uA</text>
<text x="586.2" y="359.0" text-anchor="middle">604.98 uA</text>
<text x="895.7" y="377.0" text-anchor="middle">603.19 uA</text>
<text x="24" y="428" font-weight="700">ADC A4-A5</text><text x="24" y="448" class="small">reset pair</text>
<line class="lane" x1="190" y1="444" x2="1140" y2="444"/>
<polyline class="cur" points="405.0,436.1 527.5,436.1 540.4,455.9 632.0,455.9 651.4,455.9 1140.0,455.9"/>
<text x="466.2" y="429.1" text-anchor="middle">-17.36 uA</text>
<text x="586.2" y="448.9" text-anchor="middle">-19.32 uA</text>
<text x="895.7" y="448.9" text-anchor="middle">-19.32 uA</text>
<line class="axis" x1="190" y1="522" x2="1140" y2="522"/>
<line class="axis" x1="190.0" y1="522" x2="190.0" y2="528"/>
<text x="190.0" y="545" text-anchor="middle" class="small">0.000s</text>
<line class="axis" x1="533.9" y1="522" x2="533.9" y2="528"/>
<text x="533.9" y="545" text-anchor="middle" class="small">16.001s</text>
<line class="axis" x1="638.5" y1="522" x2="638.5" y2="528"/>
<text x="638.5" y="545" text-anchor="middle" class="small">20.866s</text>
<line class="axis" x1="619.9" y1="522" x2="619.9" y2="528"/>
<text x="619.9" y="545" text-anchor="middle" class="small">20.000s</text>
<line class="axis" x1="834.8" y1="522" x2="834.8" y2="528"/>
<text x="834.8" y="545" text-anchor="middle" class="small">30.000s</text>
<line class="axis" x1="1049.7" y1="522" x2="1049.7" y2="528"/>
<text x="1049.7" y="545" text-anchor="middle" class="small">40.000s</text>
<line class="axis" x1="1140.0" y1="522" x2="1140.0" y2="528"/>
<text x="1140.0" y="545" text-anchor="middle" class="small">44.200s</text>
</svg>
